<svg width="73" height="70" viewBox="0 0 73 70" fill="none" xmlns="http://www.w3.org/2000/svg">
<path d="M72.32 32.3299C72.32 29.3799 69.97 26.9799 67.04 26.8999V28.9099C68.86 28.9999 70.32 30.4899 70.32 32.3299C70.32 34.1699 68.86 35.6699 67.04 35.7499V37.7599C69.97 37.6799 72.32 35.2799 72.32 32.3299Z" fill="#006699"/>
<path d="M42.2399 11.99H17.3999V13.47H42.2399V11.99Z" fill="#006699"/>
<path d="M42.2399 17.2H17.3999V18.68H42.2399V17.2Z" fill="#006699"/>
<path d="M42.2399 6.78003H17.3999V8.26003H42.2399V6.78003Z" fill="#006699"/>
<path d="M58.8798 14.54V12.54H48.3398V2H46.3398V14.54H58.8798Z" fill="#006699"/>
<path d="M13.3599 2H46.3399H48.3399H48.4699L58.8799 12.41V12.54V14.54V26.89H60.8799V11.59L49.2899 0H11.3599V44.57H13.3599V2Z" fill="#006699"/>
<path d="M58.8799 67.14H13.3599V58.93H11.3599V69.14H60.8799V37.77H58.8799V67.14Z" fill="#006699"/>
<path d="M51.56 58.9301V44.5701H13.36H11.36H0V58.9301H11.36H13.36H51.56ZM6.68 45.5701V46.5701H8.95V45.5701H10.95V46.5701H13.22V45.5701H15.22V46.5701H17.49V45.5701H19.49V46.5701H21.76V45.5701H23.76V46.5701H26.03V45.5701H28.03V46.5701H30.3V45.5701H32.3V46.5701H34.57V45.5701H36.57V46.5701H38.84V45.5701H40.84V46.5701H49.58V56.9301H2V46.5701H4.68V45.5701H6.68Z" fill="#006699"/>
<path d="M4.68018 49.0101H6.68018V46.5701V45.5701H4.68018V46.5701V49.0101Z" fill="#006699"/>
<path d="M10.9502 49.0101V46.5701V45.5701H8.9502V46.5701V49.0101H10.9502Z" fill="#006699"/>
<path d="M15.21 51.4101V46.5701V45.5701H13.21V46.5701V51.4101H15.21Z" fill="#006699"/>
<path d="M19.48 49.0101V46.5701V45.5701H17.48V46.5701V49.0101H19.48Z" fill="#006699"/>
<path d="M23.75 49.0101V46.5701V45.5701H21.75V46.5701V49.0101H23.75Z" fill="#006699"/>
<path d="M28.02 51.4101V46.5701V45.5701H26.02V46.5701V51.4101H28.02Z" fill="#006699"/>
<path d="M32.29 49.0101V46.5701V45.5701H30.29V46.5701V49.0101H32.29Z" fill="#006699"/>
<path d="M36.5498 49.0101V46.5701V45.5701H34.5498V46.5701V49.0101H36.5498Z" fill="#006699"/>
<path d="M40.8198 51.4101V46.5701V45.5701H38.8198V46.5701V51.4101H40.8198Z" fill="#006699"/>
<path d="M45.42 54.33C47.31 54.33 48.84 52.8 48.84 50.91C48.84 49.02 47.31 47.49 45.42 47.49C43.53 47.49 42 49.02 42 50.91C42 52.8 43.54 54.33 45.42 54.33ZM45.42 49.49C46.2 49.49 46.84 50.13 46.84 50.91C46.84 51.69 46.2 52.33 45.42 52.33C44.64 52.33 44 51.69 44 50.91C44 50.13 44.64 49.49 45.42 49.49Z" fill="#006699"/>
<path d="M67.0399 35.7499V28.8999V26.8899V26.8799H60.8799H58.8799H29.4899L22.1299 32.3199L29.4899 37.7599H58.8799H60.8799H67.0399V37.7499V35.7499ZM28.8199 36.7699V34.7899L25.4999 32.3299L28.8199 29.8699V27.8899H30.8199V28.8899H65.0399V35.7699H30.8199V36.7699H28.8199Z" fill="#006699"/>
<path d="M30.8198 35.7699V33.3299H30.0398V31.3299H30.8198V28.8899V27.8899H28.8198V29.8699V34.7899V36.7699H30.8198V35.7699Z" fill="#006699"/>
<path d="M60.88 33.3301V31.3301H30.82H30.04V33.3301H30.82H60.88Z" fill="#006699"/>
</svg>
