<svg width="118" height="67" viewBox="0 0 118 67" fill="none" xmlns="http://www.w3.org/2000/svg">
<path d="M14.1502 40.8V40.76L14.8502 40.29C15.0302 40.17 15.2002 40.04 15.3702 39.9C15.3302 39.76 15.2902 39.61 15.2502 39.47C14.6402 39.8 13.9402 40.01 13.0002 40.01C11.0202 40.01 10.0502 39.1 8.94024 38.05C7.69024 36.87 6.27023 35.54 3.49023 35.54V37.51C5.47023 37.51 6.44024 38.42 7.55024 39.47C8.58024 40.44 9.74023 41.51 11.6802 41.86C11.8102 41.81 11.9302 41.76 12.0602 41.7L14.1502 40.8Z" fill="#006699"/>
<path d="M14.1899 41.8799C14.1999 41.8799 14.1999 41.8799 14.2099 41.8799L14.1999 41.6899L14.1899 41.8799Z" fill="#006699"/>
<path d="M112.19 38.05C111.07 39.1 110.11 40.01 108.13 40.01C106.15 40.01 105.19 39.1 104.07 38.05C102.82 36.87 101.4 35.54 98.6201 35.54C95.8401 35.54 94.4201 36.88 93.1701 38.05C92.0501 39.1 91.0901 40.01 89.1101 40.01C87.1301 40.01 86.1701 39.1 85.0501 38.05C83.8001 36.87 82.3801 35.54 79.6001 35.54C76.8201 35.54 75.4001 36.88 74.1501 38.05C73.0301 39.1 72.0701 40.01 70.0901 40.01C68.1101 40.01 67.1501 39.1 66.0301 38.05C64.7801 36.87 63.3601 35.54 60.5801 35.54C57.8001 35.54 56.3801 36.88 55.1301 38.05C54.0101 39.1 53.0501 40.01 51.0701 40.01C49.0901 40.01 48.1301 39.1 47.0101 38.05C45.7601 36.87 44.3401 35.54 41.5601 35.54C40.0601 35.54 38.9701 35.93 38.0801 36.47C38.1001 36.5 38.1201 36.53 38.1401 36.56C38.4201 36.97 38.8001 37.51 39.2501 38.08C39.8701 37.73 40.5901 37.51 41.5601 37.51C43.5401 37.51 44.5001 38.42 45.6201 39.47C46.8701 40.65 48.2901 41.98 51.0701 41.98C53.8501 41.98 55.2701 40.64 56.5201 39.47C57.6401 38.42 58.6001 37.51 60.5801 37.51C62.5601 37.51 63.5201 38.42 64.6401 39.47C65.8901 40.65 67.3101 41.98 70.0901 41.98C72.8701 41.98 74.2901 40.64 75.5401 39.47C76.6601 38.42 77.6201 37.51 79.6001 37.51C81.5801 37.51 82.5401 38.42 83.6601 39.47C84.9101 40.65 86.3301 41.98 89.1101 41.98C91.8901 41.98 93.3101 40.64 94.5601 39.47C95.6801 38.42 96.6401 37.51 98.6201 37.51C100.6 37.51 101.56 38.42 102.68 39.47C103.93 40.65 105.35 41.98 108.13 41.98C110.91 41.98 112.33 40.64 113.58 39.47C114.7 38.42 115.66 37.51 117.64 37.51V35.54C114.86 35.54 113.44 36.88 112.19 38.05Z" fill="#006699"/>
<path d="M76.7202 19.49L75.1402 18.45H59.9302L63.6302 27.12H96.8702V20.31L78.4002 20.4V18.45H76.9602L77.2702 18.66L76.7202 19.49Z" fill="#006699"/>
<path d="M47.9901 1L47.8901 1.13L54.2101 26.5H58.9401L49.0401 1.31L48.5701 1H47.9901Z" fill="#006699"/>
<path d="M47.89 1.13L47.99 1H48.58L49.05 1.31L75.15 18.46L76.73 19.5L77.28 18.66L76.97 18.46L48.87 0H47.48L38.73 11.94C38.91 12.32 39.05 12.69 39.16 13.04L47.89 1.13Z" fill="#006699"/>
<path d="M51.8999 38.45C52.7299 38.27 53.2699 37.76 54.0899 36.99C55.3999 35.76 57.1899 34.07 60.5799 34.07C63.9599 34.07 65.7499 35.75 67.0699 36.99C68.0999 37.96 68.7099 38.54 70.0799 38.54C71.4499 38.54 72.0399 37.99 73.0999 36.99C74.4099 35.76 76.1999 34.07 79.5899 34.07C82.9799 34.07 84.7599 35.76 86.0799 36.99C87.1399 37.99 87.7199 38.54 89.0899 38.54C90.4599 38.54 91.0899 37.96 92.1099 36.99C93.4299 35.76 95.2199 34.07 98.6099 34.07C99.6899 34.07 100.59 34.25 101.37 34.52V28.74H51.8999V38.45Z" fill="#006699"/>
<path d="M2.62 50.3801C0.360001 56.2601 0 60.3401 0 60.3401C0 60.3401 3.98 63.8601 11.04 66.3101C11.97 58.1601 12.46 47.5701 12.64 43.0801C8.39 44.8901 4.33 45.9201 2.62 50.3801Z" fill="#006699"/>
<path d="M56.4001 60.34C56.4001 60.34 56.0401 56.26 53.7801 50.38C52.0401 45.86 47.9101 44.86 43.6001 43.01C43.7801 47.47 44.2701 58.16 45.2101 66.36C52.3601 63.91 56.4001 60.34 56.4001 60.34Z" fill="#006699"/>
<path d="M36.2299 36.7601C35.1499 45.8101 28.1999 45.4601 28.1999 45.4601C28.1999 45.4601 21.2399 45.8101 20.1699 36.7601C20.0899 36.0901 18.6699 39.5101 15.6899 41.5401L16.5599 59.1401H39.6799L40.5499 41.4301C37.6799 39.3901 36.3099 36.1001 36.2299 36.7601Z" fill="#006699"/>
<path d="M29.9999 21.6401H35.6399H42.6999C42.6999 21.6401 43.1299 19.5401 40.9399 17.1201C39.7499 15.8001 39.6399 14.5401 39.1599 13.0401C39.0499 12.6901 38.9099 12.3201 38.7299 11.9401C38.2799 10.9601 37.5699 9.87011 36.2599 8.59011C32.4499 4.86011 32.1199 6.63011 32.1199 6.63011C32.1199 6.63011 31.9099 8.03011 31.6199 9.55011C31.2699 11.3601 30.7999 13.3501 30.4099 13.3501V7.92011V6.11011H29.9899H28.4499H26.4499H26.0299V13.3501C25.3099 13.3501 24.3199 6.64011 24.3199 6.64011C24.3199 6.64011 23.9899 4.87011 20.1799 8.60011C16.1999 12.4901 17.6899 14.7101 15.4999 17.1301C15.2199 17.4401 14.9899 17.7401 14.7899 18.0301C13.4099 20.0501 13.7499 21.6501 13.7499 21.6501H14.1399H26.4599H29.9999V21.6401Z" fill="#006699"/>
<path d="M38.2998 28.6799C38.5898 28.5399 38.8398 28.2399 39.0098 27.9899C39.6098 27.1399 40.7698 24.6499 40.0898 23.5799C39.9898 23.4199 39.7798 23.2099 39.4298 23.1299C39.4298 23.1499 39.4398 23.1699 39.4398 23.1899C39.3398 25.1499 38.9198 26.9899 38.2998 28.6799Z" fill="#006699"/>
<path d="M17.0099 23.1399C16.6499 23.2199 16.4499 23.4299 16.3499 23.5899C15.6699 24.6599 16.8299 27.1499 17.4299 27.9999C17.6099 28.2499 17.8499 28.5499 18.1399 28.6899C17.5199 26.9999 17.1099 25.1599 16.9999 23.2099C16.9999 23.1799 17.0099 23.1599 17.0099 23.1399Z" fill="#006699"/>
<path d="M28.22 37.0701C23.94 37.0701 18.42 30.8601 18 23.1401C17.99 22.8601 17.74 22.6301 17.47 22.6701C17.22 22.6801 17.03 22.8901 17.01 23.1301C17.01 23.1501 17 23.1701 17 23.1901C17.11 25.1401 17.52 26.9901 18.14 28.6701C20.18 34.2301 24.53 38.0601 28.22 38.0601C30.73 38.0601 33.54 36.2801 35.73 33.4001C36.76 32.0401 37.65 30.4501 38.3 28.6701C38.92 26.9801 39.33 25.1401 39.44 23.1901C39.44 23.1701 39.43 23.1501 39.43 23.1301C39.41 22.8801 39.22 22.6801 38.97 22.6701C38.69 22.6301 38.46 22.8701 38.44 23.1401C38.27 26.1901 37.3 29.0001 35.93 31.2901C33.84 34.7901 30.81 37.0701 28.22 37.0701Z" fill="#006699"/>
</svg>
