<svg width="75" height="71" viewBox="0 0 75 71" fill="none" xmlns="http://www.w3.org/2000/svg">
<path d="M40.96 17.2368H7.47998V19.2368H40.96V17.2368Z" fill="#006699"/>
<path d="M40.96 10.2168H7.47998V12.2168H40.96V10.2168Z" fill="#006699"/>
<path d="M40.96 24.2566H7.47998V26.2566H40.96V24.2566Z" fill="#006699"/>
<path d="M14.54 69.5366H12.54V57.9966H1V55.9966H14.54V69.5366Z" fill="#006699"/>
<path d="M17.02 55.6768C18.68 52.8668 20.54 50.2168 22.48 47.6268C23.47 46.3468 24.45 45.0568 25.55 43.8168C25.83 43.4968 26.1 43.1968 26.46 42.8568C26.56 42.7668 26.65 42.6868 26.8 42.5668C26.83 42.5468 26.89 42.5068 26.95 42.4668C27.04 42.4168 27.01 42.4168 27.24 42.3168C27.33 42.2868 27.43 42.2568 27.52 42.2368C27.52 42.2368 27.6 42.2168 27.7 42.2168C27.79 42.2168 27.89 42.2168 27.99 42.2268C28.19 42.2568 28.38 42.3268 28.54 42.4168C28.72 42.5268 28.73 42.5568 28.82 42.6468C28.89 42.7268 28.96 42.8068 29.02 42.8968C29.08 42.9868 29.12 43.0768 29.16 43.1768C29.18 43.2368 29.19 43.2768 29.2 43.3268C29.3 43.7968 29.24 43.8968 29.23 44.0668C29.21 44.1668 29.19 44.3068 29.17 44.3668C29.13 44.5368 29.08 44.6568 29.04 44.7768C28.7 45.6668 28.36 46.3568 28.05 47.0768C27.74 47.7568 27.43 48.5268 27.34 48.9668C27.31 49.0468 27.35 49.1268 27.3 48.9068C27.27 48.8168 27.17 48.5568 26.94 48.3968C26.72 48.2168 26.46 48.1768 26.38 48.1768C26.2 48.1768 26.31 48.1968 26.43 48.1468C26.55 48.1068 26.72 48.0468 26.9 47.9768C27.27 47.8368 27.67 47.6468 28.25 47.5268C28.54 47.4668 28.88 47.4068 29.35 47.4568C29.81 47.4968 30.42 47.7668 30.78 48.2368C31.17 48.7268 31.24 49.2568 31.25 49.5768C31.26 49.9168 31.23 50.1568 31.21 50.3368C31.19 50.5168 31.18 50.6568 31.17 50.6568C31.17 50.6668 31.08 50.4568 30.92 50.3768C30.74 50.2768 30.59 50.3068 30.65 50.3268C30.7 50.3368 30.84 50.3168 30.99 50.2868C31.31 50.2068 31.69 50.0768 32.08 49.9468C32.87 49.6968 33.74 49.4768 34.62 49.3868C35.56 49.2568 36.57 49.5268 37.3 49.9468C38.07 50.3668 38.66 50.9168 39.35 51.3468C38.52 51.2368 37.75 50.8968 37 50.7668C36.23 50.6068 35.58 50.6268 34.94 50.8868C34.24 51.1168 33.59 51.4668 32.9 51.8468C32.55 52.0268 32.2 52.2268 31.76 52.4168C31.53 52.5068 31.29 52.6068 30.94 52.6668C30.76 52.6968 30.55 52.7068 30.3 52.6768C30.05 52.6468 29.76 52.5468 29.52 52.3768C29.03 52.0668 28.74 51.4668 28.68 51.0868C28.6 50.6868 28.62 50.4168 28.61 50.1968C28.61 49.9868 28.61 49.8168 28.59 49.7568C28.57 49.6768 28.55 49.7968 28.68 49.9768C28.78 50.1368 29.01 50.2168 29.06 50.2268C29.13 50.2368 29.06 50.2368 28.96 50.2768C28.75 50.3468 28.42 50.4868 28.05 50.6568C27.86 50.7468 27.65 50.8368 27.39 50.9268C27.13 51.0068 26.84 51.1368 26.26 51.1268C25.98 51.1168 25.52 51.0268 25.14 50.7168C24.76 50.4268 24.54 49.9868 24.47 49.6968C24.32 49.0868 24.39 48.7468 24.43 48.4368C24.65 47.2968 25.04 46.5968 25.38 45.8068C25.73 45.0668 26.14 44.3168 26.4 43.7168L26.47 43.5568C26.48 43.5268 26.47 43.5568 26.48 43.5668C26.48 43.6468 26.44 43.6368 26.51 44.0068L26.55 44.1168C26.58 44.1968 26.62 44.2868 26.67 44.3668C26.72 44.4468 26.78 44.5168 26.85 44.5868C26.93 44.6668 26.94 44.6768 27.11 44.7868C27.25 44.8768 27.44 44.9468 27.62 44.9768C27.71 44.9868 27.8 44.9968 27.89 44.9868C27.98 44.9768 28.06 44.9668 28.06 44.9668C28.13 44.9568 28.2 44.9368 28.27 44.9068C28.45 44.8268 28.39 44.8468 28.43 44.8268C28.45 44.8168 28.47 44.7968 28.46 44.8068C28.45 44.8068 28.39 44.8568 28.33 44.8968C28.09 45.0968 27.8 45.3768 27.52 45.6368L24.13 49.0068C21.81 51.2968 19.51 53.5668 17.02 55.6768Z" fill="#006699"/>
<path d="M47.52 45.2867V68.5367H12.41L2 58.1267V3.39673H47.52V25.7467C48.14 24.6067 48.81 23.4367 49.52 22.2267V1.39673H0V58.9467L11.59 70.5367H49.52V43.0967C48.84 43.8767 48.17 44.6067 47.52 45.2867Z" fill="#006699"/>
<path d="M71.1298 8.0567C72.3798 4.7667 72.2098 2.2767 69.5998 0.7167C63.2498 -3.0933 58.6798 8.8967 50.6598 22.2567C42.6398 35.6167 39.0998 48.2267 40.5698 49.1067C42.1698 50.0667 51.4898 40.9267 59.5098 27.5667C63.6498 20.6567 67.9398 14.7567 70.2198 10.1267L71.7698 11.0567L61.5998 28.0167L63.4098 29.1067L74.7398 10.2167L71.1298 8.0567Z" fill="#006699"/>
</svg>
