<svg width="38" height="38" viewBox="0 0 38 38" fill="none" xmlns="http://www.w3.org/2000/svg">
<path d="M37.75 19C37.75 8.645 29.355 0.25 19 0.25C8.91313 0.25 0.689375 8.21625 0.269375 18.2C0.264375 18.3225 0.263125 18.4469 0.260625 18.57C0.2575 18.7138 0.25 18.8563 0.25 19V19.0631C0.25 29.3838 8.645 37.75 19 37.75C29.355 37.75 37.75 29.3838 37.75 19.0631L37.7487 19.0325L37.75 19ZM22.7438 36.0944C22.4156 35.9163 22.1006 35.6244 21.9725 35.2269C21.7406 34.5069 21.92 33.9481 22.1862 33.2981C22.3988 32.7775 22.1131 32.1762 22.2544 31.6312C22.53 30.5706 22.8625 29.4213 22.76 28.2819C22.6962 27.5825 22.5413 27.5506 22.0238 27.1469C21.4781 26.7188 21.4781 26.1131 21.1131 25.5719C20.7825 25.08 21.6725 23.2113 21.4244 23.0975C21.1463 22.9694 20.5138 23.1369 20.3138 22.8713C20.0988 22.585 19.9487 22.2469 19.6531 22.025C19.4625 21.8819 18.6194 21.4031 18.3944 21.4369C17.2612 21.6062 16.0337 20.5013 15.3106 19.7806C14.8125 19.2863 14.605 18.7319 14.24 18.16C13.9313 17.6756 13.4637 17.6338 13.2344 17.0331C12.9937 16.4056 13.1369 15.6019 13.0638 14.9419C12.9844 14.2325 12.6319 14.0063 12.1913 13.4637C11.2488 12.2994 10.9019 10.5619 9.11375 10.5619C8.15312 10.5619 8.22125 12.6544 7.4475 12.3738C6.5725 12.0569 5.21875 13.5556 5.23812 13.3538C5.34062 12.3075 6.415 11.7987 6.52 11.4869C6.86312 10.4631 4.98688 10.7081 5.2275 9.85438C5.345 9.43438 6.53875 9.12875 6.29187 8.87813C6.2175 8.80188 5.30438 8.16125 5.34938 8.12938C5.51875 8.01063 6.255 8.38688 6.095 7.89813C6.04125 7.73563 5.95437 7.58625 5.87187 7.43563C6.25135 7.0047 6.65183 6.59274 7.07188 6.20125C7.70563 6.14937 8.36312 6.18875 8.60125 6.235C10.1112 6.5325 10.6363 7.29688 12.1462 6.73125C12.8725 6.46 15.5494 6.93062 15.9331 7.69187C16.1419 8.10812 16.9194 7.44 17.2225 7.395C17.5475 7.34625 18.2819 7.84687 18.5056 7.54C19.095 6.73312 18.1281 6.39813 19.27 7.01938C20.0356 7.43625 21.5319 5.60313 21.0581 7.7575C20.7162 9.31063 19.46 9.345 18.5387 10.3569C17.6319 11.3531 20.3331 11.6244 20.4025 12.5244C20.6025 15.1156 21.9844 12.3131 21.6144 11.3919C20.8987 9.6075 22.4288 10.0975 23.045 11.2312C23.3869 11.8606 23.6469 11.3306 24.0656 11.1112C24.405 10.9344 24.4956 11.8925 24.5688 12.0594C24.8094 12.6138 25.6 12.7794 25.4663 13.4931C25.3175 14.28 24.7581 14.0438 24.2113 14.1769C23.6006 14.325 24.31 14.8387 24.2213 15.0262C24.125 15.2312 23.3888 15.3162 23.1925 15.4325C22.615 15.7725 22.9681 16.4356 22.5163 16.7919C22.2062 17.0369 21.8938 16.8775 21.8337 17.3363C21.7631 17.8769 20.7669 18.0506 20.8962 18.5675C20.9319 18.7094 21.2188 19.7694 21.0381 19.8256C20.955 19.8525 20.2981 18.9037 20.1188 18.8088C19.7638 18.6206 18.15 18.7744 17.9425 19.8425C17.8081 20.5331 18.9194 21.6237 19.2025 20.6725C19.5531 19.5019 19.72 21.3544 19.6356 21.4269C19.8031 21.5731 20.7831 21.1863 20.4925 21.8644C20.3694 22.1513 20.6131 22.8994 21.0481 22.6687C21.23 22.5725 21.6988 22.8625 21.7806 22.7069C21.8983 22.5276 22.0574 22.3793 22.2444 22.2744C22.6825 22.0181 23.3381 22.2587 23.8181 22.2869C24.1112 22.3037 26.5138 23.6144 26.5269 23.8775C26.5794 24.8619 28.3956 24.7337 28.6744 25.0856C29.4237 26.0394 29.1931 25.555 28.6462 26.7769C28.3706 27.3919 28.6106 28.1462 27.9431 28.5919C27.6219 28.8056 27.23 28.6987 26.9444 29.0012C26.6869 29.2744 26.7881 29.6006 26.6319 29.9163C26.4437 30.2919 23.9156 32.5638 23.7487 33.1131C23.6656 33.3888 22.9113 33.6287 23.5475 33.8931C23.9175 34.0019 22.7281 35.1263 23.3 35.5919C23.4394 35.705 23.5306 35.8006 23.5994 35.8862C23.3138 35.9625 23.0306 36.0319 22.7438 36.0944ZM21.2463 1.64812C21.2219 1.73875 21.2588 1.84562 21.4156 1.95C21.7694 2.18437 21.3144 2.705 20.8263 2.36937C20.3394 2.03375 19.2444 2.52 19.32 2.77187C19.3944 3.02375 19.7325 3.12375 20.255 2.92313C20.7762 2.72187 20.9913 2.95312 21.0788 3.19187C21.1388 3.35375 21.0788 3.44375 21.0619 3.66188C21.0462 3.88 20.4394 3.72875 19.935 3.76312C19.4294 3.79688 18.8913 3.66188 18.9069 3.37625C18.9237 3.09125 18.3687 2.57062 18.0375 2.35312C17.7069 2.13562 18.1825 1.66562 18.6213 2.0175C19.0581 2.37 19.0756 1.95062 19.5806 1.81687C19.8675 1.74063 19.7525 1.62625 19.655 1.5175C20.1925 1.53625 20.7225 1.58125 21.2463 1.64812ZM23.4444 7.19125C23.8225 7.29375 24.4794 7.77188 24.4794 7.99813C24.4794 8.225 24.1812 8.50875 24.0494 8.47625C23.0975 8.24437 22.295 7.305 21.8531 6.79063C21.0819 5.89375 21.1306 6.6625 19.9087 6.27437C19.5962 6.17438 19.1006 5.205 19.4288 4.72688C19.7569 4.24875 20.1356 4.17312 20.4381 4.3C20.7406 4.425 21.6244 3.89687 21.8275 4.52625C22.0287 5.15562 22.5844 5.95875 23.09 6.17375C23.5962 6.3875 23.065 7.08875 23.4444 7.19125ZM23.7475 10.1119C23.8988 10.4137 22.8381 9.75938 22.5856 9.4575C22.3344 9.15625 21.9544 8.47563 22.2588 8.17375C22.5613 7.8725 23.24 8.80188 23.5969 9.005C24.3025 9.40812 23.5963 9.81062 23.7475 10.1119ZM18.3763 5.54C18.4494 5.43937 18.6044 5.69125 18.7425 5.94313C18.8806 6.195 18.69 6.55 18.3763 6.49625C18.0625 6.44375 18.2006 5.78625 18.3763 5.54ZM18.3763 3.0075C18.3763 3.0075 18.6719 3.72875 18.3763 3.61125C18.0806 3.49375 18.0662 3.19188 18.3763 3.0075ZM18.4362 5.28875C18.3519 5.08813 18.3325 4.26375 18.5375 4.01375C18.84 3.645 19.3288 4.36625 19 4.65125C18.6719 4.93687 18.52 5.49063 18.4362 5.28875ZM14.6381 6.17313C14.0887 6.13375 14.0769 5.65875 14.0006 5.40688C13.9244 5.155 13.4694 5.885 13.0094 5.40688C12.5494 4.92875 13.1169 4.3 13.0156 3.92188C12.9144 3.54437 14.1006 3.92188 14.2781 3.92188C14.4556 3.92188 14.935 4.70188 15.0606 4.68875C15.1875 4.67625 15.8687 5.30562 15.8687 5.05375C15.8687 4.8025 15.9725 4.37375 16.45 4.32375C17.1825 4.24812 16.5256 5.12937 16.5 5.4725C16.4756 5.81563 17.0569 6.4125 17.27 6.66437C17.485 6.91625 16.7281 7.09313 16.6012 6.94125C16.4756 6.79 16.1469 6.94125 15.8687 7.1425C15.5919 7.34375 14.8337 6.86563 14.4806 6.71438C14.1269 6.56375 15.1875 6.21187 14.6381 6.17313ZM16.6012 2.20188C17.0894 2.37 17.3669 2.52063 17.6069 2.20188C17.8388 1.89438 18.0156 2.8725 17.8475 3.14062C17.6788 3.41 17.3594 3.34313 17.3081 3.14062C17.2581 2.94062 16.1131 2.03375 16.6012 2.20188ZM17.3081 5.23875C17.1406 5.02 17.1237 4.76875 17.3081 4.58438C17.4937 4.4 17.4338 4.18187 17.7638 4.115C17.9263 4.08125 17.9481 4.3325 17.9481 4.5675C17.9481 4.8025 18.1506 5.10437 17.9481 5.4725C17.7463 5.84062 17.4769 5.45625 17.3081 5.23875ZM18.6862 1.50813C18.6787 1.55438 18.6481 1.58187 18.5712 1.57437C18.5184 1.56541 18.4681 1.54516 18.4237 1.515C18.5119 1.51188 18.5981 1.50937 18.6862 1.50813ZM14.8681 2.21875C15.255 2.21875 15.205 2.48 15.525 2.66812C15.845 2.85562 15.6762 1.69812 15.895 2.13437C16.1137 2.57 16.7631 3.17438 16.4506 3.29125C16.1819 3.39313 15.0544 3.82812 14.9531 3.75312C14.8519 3.67812 14.7175 3.35938 14.4475 3.29125C14.1775 3.22438 13.8919 2.58687 13.7063 2.60375C13.6356 2.61 13.6294 2.48875 13.6756 2.3275C14.0002 2.22299 14.3279 2.12816 14.6581 2.04312C14.6944 2.14188 14.7494 2.21875 14.8681 2.21875ZM23.3175 20.9844C22.9144 21.4006 22.22 20.6944 21.7406 20.7194C21.2612 20.7444 21.0206 20.2413 20.6044 20.2919C20.1869 20.3413 20.7181 19.7625 21.2988 20.0656C21.8781 20.3675 23.6462 20.6437 23.3175 20.9844ZM31.3988 6.65063C31.2812 6.80063 31.1475 6.90563 31.0194 7.01625C30.6412 7.34375 29.9344 7.31875 29.8331 7.545C29.7319 7.77125 29.4794 8.47563 28.5956 8.47875C27.7119 8.48125 27.9644 9.81062 27.8888 10.19C27.8131 10.5694 27.6119 11.0181 27.3587 10.6906C27.1063 10.3637 27.005 10.4887 26.2237 9.5325C25.4425 8.57625 25.7425 8.04813 25.9956 7.77125C26.2481 7.495 26.3494 6.84 25.9956 6.94063C25.6419 7.04125 25.44 6.81437 25.5156 6.50125C25.5912 6.18813 25.97 5.95938 25.5156 5.625C25.0612 5.29125 25.3131 4.09687 24.96 3.00687C24.6062 1.91625 24.1263 2.68812 23.3438 2.73C22.5613 2.77187 22.4344 2.18437 22.7881 1.91562C26.0523 2.63746 29.0408 4.28083 31.3988 6.65063Z" fill="#006699"/>
</svg>
