<svg width="455" height="65" viewBox="0 0 455 65" fill="none" xmlns="http://www.w3.org/2000/svg">
<path d="M27.0881 58.7168C16.5927 58.7168 0 51.9383 0 32.7991C0 13.7595 15.6931 6.88135 28.2876 6.88135C39.7825 6.88135 47.3792 13.0617 47.679 13.3608L43.8807 17.9462C43.7808 17.9462 37.4835 12.8624 28.2876 12.8624C24.6892 12.8624 9.19596 13.9589 9.19596 32.7991C9.19596 48.6488 20.0912 51.8386 27.5879 51.8386C36.484 51.8386 43.8807 46.7548 43.9807 46.7548L47.679 51.4399C47.1793 51.7389 38.0833 58.7168 27.0881 58.7168Z" fill="#006699"/>
<path d="M50.7776 58.7168L71.3685 6.88135H83.1633L103.554 58.7168H94.4584L77.166 13.2611L59.5737 58.7168H50.7776Z" fill="#006699"/>
<path d="M86.9618 25.7216H55.1758V32.6994H86.9618V25.7216Z" fill="#006699"/>
<path d="M151.134 6.78162H109.152V13.7595H151.134V6.78162Z" fill="#006699"/>
<path d="M118.048 6.78162H109.152V58.7168H118.048V6.78162Z" fill="#006699"/>
<path d="M151.134 6.78162H142.238V58.7168H151.134V6.78162Z" fill="#006699"/>
<path d="M313.063 6.78162H271.081V13.7595H313.063V6.78162Z" fill="#006699"/>
<path d="M279.977 6.78162H271.081V58.7168H279.977V6.78162Z" fill="#006699"/>
<path d="M313.063 6.78162H304.167V58.7168H313.063V6.78162Z" fill="#006699"/>
<path d="M356.943 6.78162H321.458V13.7595H356.943V6.78162Z" fill="#006699"/>
<path d="M359.042 51.7389H321.458V58.7167H359.042V51.7389Z" fill="#006699"/>
<path d="M357.942 25.7214H321.458V32.6993H357.942V25.7214Z" fill="#006699"/>
<path d="M330.954 6.78162H321.059V58.7168H330.954V6.78162Z" fill="#006699"/>
<path d="M169.026 6.78162H159.03V58.7168H169.026V6.78162Z" fill="#006699"/>
<path d="M184.419 6.78162H159.03V13.7595H184.419C188.517 13.7595 191.016 17.1487 191.016 21.2357C191.016 25.3228 188.517 28.712 184.419 28.712H159.03V35.6899H184.419C192.416 35.6899 198.913 29.2104 198.913 21.2357C198.913 13.261 192.416 6.78162 184.419 6.78162Z" fill="#006699"/>
<path d="M421.915 6.68188H411.919V58.7167H421.915V6.68188Z" fill="#006699"/>
<path d="M439.307 58.7168H411.919V50.7421H439.307C443.805 50.7421 446.504 46.9541 446.504 42.1693C446.504 37.3845 443.805 33.5965 439.307 33.5965H411.919V25.6218H439.307C448.003 25.6218 455 32.9984 455 42.1693C455 51.3402 448.003 58.7168 439.307 58.7168Z" fill="#006699"/>
<path d="M404.022 6.78162H369.038V13.7595H404.022V6.78162Z" fill="#006699"/>
<path d="M403.922 6.78162H395.026V58.8165H403.922V6.78162Z" fill="#006699"/>
<path d="M361.041 58.7168H369.937L384.231 11.1677H375.335L361.041 58.7168Z" fill="#006699"/>
<path d="M233.997 64C251.442 64 265.583 49.897 265.583 32.5C265.583 15.103 251.442 1 233.997 1C216.553 1 202.411 15.103 202.411 32.5C202.411 49.897 216.553 64 233.997 64Z" stroke="#00CCFF" stroke-width="0.25" stroke-miterlimit="10"/>
<path d="M212.606 38.4811C217.904 38.4811 220.503 39.4779 223.302 40.4747C224.201 40.7738 225.201 41.1725 226.201 41.4716C225.401 40.8735 224.801 40.076 224.201 39.2785C224.101 39.2785 223.902 39.1789 223.802 39.1789C221.003 38.182 218.204 37.1852 212.606 37.1852C209.108 37.1852 206.709 37.5839 204.71 38.182C204.81 38.6804 204.91 39.1789 205.01 39.6773C206.909 38.8798 209.208 38.4811 212.606 38.4811Z" fill="#00CCFF"/>
<path d="M245.192 39.0792C244.892 39.1789 244.692 39.2786 244.393 39.3783L242.993 41.3719C243.993 41.0729 244.792 40.7738 245.692 40.4748C248.491 39.4779 250.99 38.4811 256.387 38.4811C259.286 38.4811 261.385 38.7802 263.084 39.1789C263.184 38.6805 263.284 38.1821 263.384 37.6836C261.585 37.2849 259.386 36.9858 256.387 36.9858C250.79 36.9858 247.891 38.0824 245.192 39.0792Z" fill="#00CCFF"/>
<path d="M245.192 42.3688C243.992 42.7675 242.893 43.1662 241.493 43.5649L240.294 45.3593C242.493 44.9605 244.092 44.3624 245.692 43.7643C248.49 42.7675 250.989 41.7706 256.387 41.7706C258.786 41.7706 260.685 41.97 262.184 42.2691C262.384 41.7706 262.484 41.2722 262.684 40.8735C260.985 40.5744 258.986 40.2754 256.387 40.2754C250.789 40.2754 247.891 41.3719 245.192 42.3688Z" fill="#00CCFF"/>
<path d="M212.607 40.2754C209.508 40.2754 207.309 40.5744 205.41 41.0728C205.51 41.5713 205.71 42.0697 205.909 42.4684C207.609 42.0697 209.708 41.7706 212.607 41.7706C217.904 41.7706 220.503 42.7675 223.302 43.7643C226.101 44.7612 228.899 45.758 234.497 45.758C234.797 45.758 235.197 45.758 235.496 45.758L236.796 44.163C236.096 44.163 235.297 44.2627 234.497 44.2627C229.199 44.2627 226.6 43.2659 223.802 42.2691C221.003 41.3719 218.204 40.2754 212.607 40.2754Z" fill="#00CCFF"/>
<path d="M212.607 43.6646C210.108 43.6646 208.209 43.8639 206.51 44.163C206.71 44.6614 206.91 45.0601 207.11 45.5585C208.609 45.2595 210.308 45.1598 212.507 45.1598C217.805 45.1598 220.404 46.1566 223.202 47.1535C225.601 48.0506 228.2 48.9478 232.598 49.1471L233.798 47.6519C228.8 47.5522 226.301 46.6551 223.702 45.7579C221.003 44.6614 218.205 43.6646 212.607 43.6646Z" fill="#00CCFF"/>
<path d="M256.387 43.6646C250.789 43.6646 247.89 44.6614 245.192 45.6582C243.292 46.356 241.493 46.9541 238.894 47.3529L237.795 48.9478C241.293 48.6487 243.592 47.8513 245.691 47.0538C248.49 46.057 250.989 45.0601 256.387 45.0601C258.186 45.0601 259.685 45.1598 260.885 45.3592C261.085 44.8608 261.285 44.462 261.484 43.9636C260.085 43.7642 258.386 43.6646 256.387 43.6646Z" fill="#00CCFF"/>
<path d="M212.606 46.9541C210.807 46.9541 209.308 47.0538 208.008 47.2532C208.308 47.7516 208.608 48.1503 208.908 48.6487C210.007 48.5491 211.207 48.4494 212.606 48.4494C217.904 48.4494 220.503 49.4462 223.302 50.443C225.201 51.1408 227.2 51.8386 230.199 52.2373L231.398 50.8418C228.099 50.5427 226 49.8449 223.901 49.0475C221.003 47.9509 218.204 46.9541 212.606 46.9541Z" fill="#006699"/>
<path d="M256.387 48.4494C257.386 48.4494 258.286 48.4494 259.186 48.549C259.486 48.0506 259.785 47.6519 260.085 47.1535C258.986 47.0538 257.786 46.9541 256.487 46.9541C250.889 46.9541 247.991 47.9509 245.292 48.9478C242.893 49.8449 240.594 50.6424 236.596 50.8418L235.496 52.337C240.494 52.2374 243.193 51.2405 245.792 50.3434C248.39 49.3465 250.989 48.4494 256.387 48.4494Z" fill="#006699"/>
<path d="M227.9 55.0285C227.9 54.8292 228 54.7295 228.1 54.5301L228.799 53.633C226.8 53.2342 225.301 52.7358 223.801 52.1377C221.003 51.1409 218.204 50.144 212.606 50.144C211.707 50.144 210.807 50.144 210.107 50.2437C210.507 50.7422 210.907 51.2406 211.307 51.6393C211.707 51.6393 212.207 51.6393 212.706 51.6393C218.004 51.6393 220.603 52.6361 223.402 53.633C224.701 54.1314 226.1 54.7295 227.9 55.0285Z" fill="#006699"/>
<path d="M256.387 50.2437C250.79 50.2437 247.891 51.2405 245.192 52.2373C242.393 53.2342 239.894 54.231 234.497 54.231C234.397 54.231 234.297 54.231 234.197 54.231L233.197 55.7262C233.597 55.7262 233.997 55.7262 234.497 55.7262C240.094 55.7262 242.993 54.7294 245.692 53.7326C248.491 52.7357 250.989 51.7389 256.387 51.7389C256.487 51.7389 256.687 51.7389 256.787 51.7389C257.187 51.2405 257.587 50.7421 257.986 50.2437C257.487 50.2437 256.887 50.2437 256.387 50.2437Z" fill="#006699"/>
<path d="M234.497 59.0158C240.094 59.0158 242.993 58.019 245.692 57.0222C247.891 56.2247 249.99 55.5269 253.388 55.2279C253.988 54.7295 254.588 54.231 255.088 53.6329C250.29 53.7326 247.691 54.7295 245.192 55.6266C242.393 56.6234 239.894 57.6203 234.497 57.6203C229.199 57.6203 226.6 56.6234 223.801 55.6266C221.103 54.6298 218.304 53.6329 212.906 53.6329C213.406 54.1314 214.006 54.6298 214.606 55.1282C218.704 55.3276 221.003 56.125 223.302 57.0222C226.001 58.019 228.899 59.0158 234.497 59.0158Z" fill="#006699"/>
<path d="M245.192 58.9161C242.393 59.913 239.894 60.9098 234.496 60.9098C229.199 60.9098 226.6 59.913 223.801 58.9161C221.902 58.2183 220.003 57.5206 217.204 57.1218C218.903 58.318 220.703 59.2152 222.602 60.0126C222.802 60.1123 223.002 60.212 223.301 60.212C224.001 60.5111 224.701 60.7104 225.5 61.0095C228.199 61.8069 231.098 62.2057 233.997 62.2057C240.094 62.2057 245.792 60.4114 250.489 57.2215C248.39 57.7199 246.691 58.318 245.192 58.9161Z" fill="#006699"/>
<path d="M222.402 28.2136H206.609C208.708 14.7563 220.303 4.78798 233.997 4.78798C247.691 4.78798 259.286 14.7563 261.385 28.2136H228.199C228.099 28.9114 228.099 29.5095 228.199 30.2073H263.684L263.584 29.1108C261.885 14.1582 249.19 2.79431 234.097 2.79431C219.003 2.79431 206.309 14.0585 204.61 29.1108L204.51 30.2073H222.102C222.102 29.6092 222.202 28.9114 222.402 28.2136Z" fill="#00CCFF"/>
<path d="M248.291 16.9493L249.69 13.7594C249.69 13.7594 236.596 10.4699 228.5 18.8433C219.803 27.8148 222.402 40.674 230.199 42.2689C235.596 43.3654 239.895 41.8702 239.895 41.8702L228.799 55.1281H232.198L243.693 38.2816C243.693 38.2816 232.698 41.5711 229.499 37.2847C226.101 32.4999 225.901 24.7246 231.098 20.0395C235.197 16.5505 239.495 13.7594 248.291 16.9493Z" fill="#00CCFF"/>
</svg>
