<svg width="78" height="78" viewBox="0 0 78 78" fill="none" xmlns="http://www.w3.org/2000/svg">
<path d="M39.0404 54.3899C47.518 54.3899 54.3904 47.5175 54.3904 39.0399C54.3904 30.5624 47.518 23.6899 39.0404 23.6899C30.5629 23.6899 23.6904 30.5624 23.6904 39.0399C23.6904 47.5175 30.5629 54.3899 39.0404 54.3899Z" stroke="#006699" stroke-width="3" stroke-miterlimit="10" stroke-linecap="round" stroke-linejoin="round"/>
<path d="M45.6999 10.8799L39.0399 18.0799L32.3799 10.8799" stroke="#006699" stroke-width="3" stroke-miterlimit="10" stroke-linecap="round" stroke-linejoin="round"/>
<path d="M39.04 2V18.08" stroke="#006699" stroke-width="3" stroke-miterlimit="10" stroke-linecap="round" stroke-linejoin="round"/>
<path d="M32.3799 67.21L39.0399 60.01L45.6999 67.21" stroke="#006699" stroke-width="3" stroke-miterlimit="10" stroke-linecap="round" stroke-linejoin="round"/>
<path d="M39.04 76.09V60.01" stroke="#006699" stroke-width="3" stroke-miterlimit="10" stroke-linecap="round" stroke-linejoin="round"/>
<path d="M10.8799 32.3899L18.0799 39.0399L10.8799 45.7099" stroke="#006699" stroke-width="3" stroke-miterlimit="10" stroke-linecap="round" stroke-linejoin="round"/>
<path d="M2 39.0398H18.08" stroke="#006699" stroke-width="3" stroke-miterlimit="10" stroke-linecap="round" stroke-linejoin="round"/>
<path d="M67.2 45.7099L60 39.0399L67.2 32.3899" stroke="#006699" stroke-width="3" stroke-miterlimit="10" stroke-linecap="round" stroke-linejoin="round"/>
<path d="M76.08 39.0398H60" stroke="#006699" stroke-width="3" stroke-miterlimit="10" stroke-linecap="round" stroke-linejoin="round"/>
<path d="M39.0396 27.4099C39.0396 27.4099 31.3096 39.2899 31.3096 43.1499C31.3096 47.0099 34.7696 50.1499 39.0396 50.1499C43.3096 50.1499 46.7696 47.0199 46.7696 43.1499C46.7696 39.2899 39.0396 27.4099 39.0396 27.4099ZM36.7096 47.9999C34.3496 47.5899 32.7596 45.4099 33.1496 43.1499C33.2896 42.3799 33.6496 41.6999 34.1496 41.1499C34.1196 41.2799 34.0796 41.3999 34.0596 41.5399C33.5596 44.4099 35.5696 47.1599 38.5696 47.6899C38.7496 47.7199 38.9396 47.7399 39.1196 47.7599C38.3796 48.0399 37.5596 48.1399 36.7096 47.9999Z" fill="#006699"/>
</svg>
