<svg width="81" height="81" viewBox="0 0 81 81" fill="none" xmlns="http://www.w3.org/2000/svg">
<path d="M32.36 78.9287C49.1274 78.9287 62.72 65.3361 62.72 48.5687C62.72 31.8014 49.1274 18.2087 32.36 18.2087C15.5926 18.2087 2 31.8014 2 48.5687C2 65.3361 15.5926 78.9287 32.36 78.9287Z" stroke="#006699" stroke-width="4" stroke-miterlimit="10"/>
<path d="M19.5907 57.8887H10.3107C9.69067 57.8887 9.18066 57.3787 9.18066 56.7587V41.3387C9.18066 40.7187 9.69067 40.2087 10.3107 40.2087H19.5907C20.2107 40.2087 20.7207 40.7187 20.7207 41.3387V43.0787C20.7207 43.6987 20.2107 44.2087 19.5907 44.2087H13.1807V53.8887H19.5907C20.2107 53.8887 20.7207 54.3987 20.7207 55.0187V56.7587C20.7207 57.3787 20.2107 57.8887 19.5907 57.8887Z" fill="#006699"/>
<path d="M19.5907 51.0486H11.1807V47.0486H19.5907C20.2107 47.0486 20.7207 47.5586 20.7207 48.1786V49.9186C20.7207 50.5386 20.2107 51.0486 19.5907 51.0486Z" fill="#006699"/>
<path d="M30.8705 58.7486C29.0305 58.7486 27.2205 57.9886 25.7205 56.5686C23.7005 54.6586 22.4905 51.7886 22.5605 49.0886C22.6205 46.4186 23.9005 43.6486 25.8905 41.8686C27.4205 40.4986 29.2905 39.8286 31.1405 39.9886C34.1605 40.2486 36.8305 42.6286 37.9505 45.9186C38.1705 46.5586 37.7605 47.2386 37.1005 47.3786L35.3805 47.7386C34.8205 47.8586 34.2805 47.5386 34.0805 46.9986C33.4405 45.3086 32.1505 44.0886 30.7805 43.9686C29.8305 43.8886 29.0405 44.3986 28.5405 44.8386C27.3805 45.8786 26.5805 47.6186 26.5405 49.1786C26.5005 50.7586 27.2605 52.5286 28.4605 53.6686C29.0305 54.2086 29.9305 54.8286 31.0605 54.7486C32.4005 54.6486 33.7205 53.5386 34.4905 51.9586C34.7405 51.4486 35.3105 51.1686 35.8605 51.3386L37.5305 51.8586C38.1705 52.0586 38.5105 52.7786 38.2305 53.3986C36.8805 56.4286 34.2405 58.5186 31.3605 58.7386C31.2105 58.7386 31.0405 58.7486 30.8705 58.7486Z" fill="#006699"/>
<path d="M48.5504 58.7487C43.8004 58.7487 39.9404 54.5387 39.9404 49.3487C39.9404 44.1587 43.8004 39.9487 48.5504 39.9487C53.3004 39.9487 57.1604 44.1587 57.1604 49.3487C57.1604 54.5387 53.3004 58.7487 48.5504 58.7487ZM48.5504 43.9487C46.0104 43.9487 43.9404 46.3687 43.9404 49.3487C43.9404 52.3287 46.0104 54.7487 48.5504 54.7487C51.0904 54.7487 53.1604 52.3287 53.1604 49.3487C53.1604 46.3687 51.1004 43.9487 48.5504 43.9487Z" fill="#006699"/>
<path d="M72.6807 10.4087C72.6807 10.4087 71.0007 14.8487 68.7207 16.8887C66.4407 18.9287 63.9207 19.4087 60.5607 20.6087C57.2007 21.8087 53.2207 26.5187 53.2207 26.5187" stroke="#006699" stroke-width="3" stroke-miterlimit="10" stroke-linecap="round" stroke-linejoin="round"/>
<path d="M59.8408 12.8086C59.8408 12.8086 62.0008 17.8486 60.5608 20.6086" stroke="#006699" stroke-width="3" stroke-miterlimit="10" stroke-linecap="round" stroke-linejoin="round"/>
<path d="M71.0001 20.0085C71.0001 20.0085 66.2601 18.6585 64.5801 19.2385" stroke="#006699" stroke-width="3" stroke-miterlimit="10" stroke-linecap="round" stroke-linejoin="round"/>
<path d="M50.7303 24.3986C50.7303 24.3986 50.1203 13.1686 54.6803 10.4086C59.2403 7.6486 74.7203 4.3686 76.2803 2.4886C77.8403 0.608598 81.4403 14.7286 77.4803 21.5686C73.5203 28.4086 69.4303 29.9686 64.5803 30.0886C59.7203 30.2086 55.1703 28.5286 55.1703 28.5286" stroke="#006699" stroke-width="3" stroke-miterlimit="10" stroke-linecap="round" stroke-linejoin="round"/>
<path d="M33.3204 18.2286C33.3204 18.2286 32.8405 16.8886 34.1605 14.2486C35.4805 11.6086 42.5605 4.54855 41.4805 2.31855C40.4005 0.088552 52.1605 10.1886 52.3405 13.2986" stroke="#006699" stroke-width="3" stroke-miterlimit="10" stroke-linecap="round" stroke-linejoin="round"/>
<path d="M43.4006 12.8086C43.4006 12.8086 42.2906 16.9786 42.7906 19.0886" stroke="#006699" stroke-width="3" stroke-miterlimit="10" stroke-linecap="round" stroke-linejoin="round"/>
</svg>
