<svg width="80" height="80" viewBox="0 0 80 80" fill="none" xmlns="http://www.w3.org/2000/svg">
<path d="M40.0698 54.1999C48.9174 54.1999 56.0898 47.0275 56.0898 38.1799C56.0898 29.3323 48.9174 22.1599 40.0698 22.1599C31.2222 22.1599 24.0498 29.3323 24.0498 38.1799C24.0498 47.0275 31.2222 54.1999 40.0698 54.1999Z" fill="#006699"/>
<path d="M50.0396 17.3C54.2646 17.3 57.6897 13.875 57.6897 9.65C57.6897 5.42502 54.2646 2 50.0396 2C45.8147 2 42.3896 5.42502 42.3896 9.65C42.3896 13.875 45.8147 17.3 50.0396 17.3Z" stroke="#006699" stroke-width="3" stroke-miterlimit="10"/>
<path d="M70.6695 78.1999C74.8945 78.1999 78.3195 74.7749 78.3195 70.5499C78.3195 66.3249 74.8945 62.8999 70.6695 62.8999C66.4446 62.8999 63.0195 66.3249 63.0195 70.5499C63.0195 74.7749 66.4446 78.1999 70.6695 78.1999Z" stroke="#006699" stroke-width="3" stroke-miterlimit="10"/>
<path d="M9.65 65.6C13.875 65.6 17.3 62.175 17.3 57.95C17.3 53.7251 13.875 50.3 9.65 50.3C5.42502 50.3 2 53.7251 2 57.95C2 62.175 5.42502 65.6 9.65 65.6Z" stroke="#006699" stroke-width="3" stroke-miterlimit="10"/>
<path d="M47.25 17.3L45 24.0501" stroke="#006699" stroke-width="3" stroke-miterlimit="10"/>
<path d="M16.0801 53.8L28.1701 46.73" stroke="#006699" stroke-width="3" stroke-miterlimit="10"/>
<path d="M49.2197 48.8899L64.8497 65.5999" stroke="#006699" stroke-width="3" stroke-miterlimit="10"/>
<path d="M32.5104 43.8601C31.5404 43.2201 30.7804 42.3501 30.2304 41.2301C29.6804 40.1101 29.4004 38.8601 29.4004 37.4601C29.4004 36.0601 29.6804 34.8101 30.2304 33.6901C30.7804 32.5701 31.5404 31.7001 32.5204 31.0601C33.5004 30.4201 34.5904 30.1101 35.7904 30.1101C36.7304 30.1101 37.5904 30.3001 38.3704 30.6701C39.1504 31.0501 39.8204 31.6001 40.3704 32.3401L39.2504 33.6301C38.3404 32.4901 37.2104 31.9301 35.8604 31.9301C34.9604 31.9301 34.1504 32.1701 33.4304 32.6501C32.7104 33.1301 32.1404 33.7901 31.7304 34.6301C31.3204 35.4701 31.1204 36.4101 31.1204 37.4501C31.1204 38.4901 31.3204 39.4301 31.7304 40.2701C32.1404 41.1101 32.7004 41.7701 33.4304 42.2501C34.1504 42.7301 34.9604 42.9701 35.8604 42.9701C37.2004 42.9701 38.3304 42.3901 39.2504 41.2501L40.3704 42.5401C39.8204 43.2801 39.1504 43.8401 38.3604 44.2201C37.5704 44.6001 36.7104 44.8001 35.7704 44.8001C34.5704 44.8101 33.4804 44.4901 32.5104 43.8601Z" fill="white"/>
<path d="M48.7005 34.7702C49.3705 35.5102 49.7105 36.6102 49.7105 38.0802V44.6502H48.1405V43.2102C47.8605 43.7202 47.4705 44.1002 46.9605 44.3702C46.4505 44.6402 45.8405 44.7702 45.1405 44.7702C44.1205 44.7702 43.3005 44.4802 42.6905 43.8902C42.0805 43.3002 41.7705 42.5302 41.7705 41.5702C41.7705 40.6102 42.0605 39.8402 42.6505 39.2602C43.2405 38.6802 44.1705 38.3902 45.4405 38.3902H48.0605V38.0002C48.0605 37.1502 47.8505 36.5002 47.4405 36.0502C47.0305 35.6002 46.4205 35.3702 45.6105 35.3702C45.0705 35.3702 44.5405 35.4802 44.0305 35.6902C43.5205 35.9002 43.0805 36.1902 42.7205 36.5402L42.0305 35.0602C42.5005 34.6102 43.0605 34.2602 43.7205 34.0202C44.3705 33.7802 45.0705 33.6602 45.8005 33.6602C47.0605 33.6602 48.0305 34.0302 48.7005 34.7702ZM47.0605 42.7502C47.5205 42.4202 47.8505 41.9402 48.0605 41.3202V39.8002H45.5105C44.1105 39.8002 43.4105 40.3602 43.4105 41.4802C43.4105 42.0302 43.5905 42.4602 43.9405 42.7702C44.3005 43.0802 44.7905 43.2402 45.4205 43.2402C46.0505 43.2502 46.6005 43.0802 47.0605 42.7502Z" fill="white"/>
</svg>
