<svg width="87" height="79" viewBox="0 0 87 79" fill="none" xmlns="http://www.w3.org/2000/svg">
<path d="M46.0802 20.0308H41.1602V41.2708H46.0802V20.0308Z" fill="#006699"/>
<path d="M83.16 29.5107H47.07V33.3507H87C87 31.2307 85.28 29.5107 83.16 29.5107ZM0 33.3507H40.17V29.5107H3.84C1.72 29.5107 0 31.2307 0 33.3507Z" fill="#006699"/>
<path d="M38.67 35.8708V44.4809C33.48 46.4709 29.79 51.4909 29.79 57.3809C29.79 65.0209 35.98 71.2109 43.62 71.2109C51.26 71.2109 57.45 65.0209 57.45 57.3809C57.45 51.4909 53.76 46.4709 48.57 44.4809V35.8708" stroke="#006699" stroke-width="3" stroke-miterlimit="10"/>
<path d="M60.8602 9.15088C60.8602 9.15088 59.2202 12.6909 57.1402 14.2609C55.0602 15.8309 52.8302 16.1209 49.8302 16.9609C46.8302 17.8009 43.1602 21.4709 43.1602 21.4709" stroke="#006699" stroke-width="3" stroke-miterlimit="10" stroke-linecap="round"/>
<path d="M53.4904 10.731C53.4904 10.731 52.5204 14.251 51.1504 16.431" stroke="#006699" stroke-width="3" stroke-miterlimit="10" stroke-linecap="round"/>
<path d="M43.6201 19.0309C43.6201 19.0309 44.6801 9.50091 48.7201 7.31091C54.2601 4.31091 64.4301 3.74091 65.8701 2.27091C67.3101 0.800911 67.6901 10.4309 63.9601 15.8309C60.2301 21.2309 56.2901 23.1909 52.0101 23.1009C47.7401 23.0009 45.1601 21.5309 45.1601 21.5309" stroke="#006699" stroke-width="3" stroke-miterlimit="10" stroke-linecap="round"/>
<path d="M25.3496 9.54077C25.3496 9.54077 29.2496 9.63077 31.5196 10.9008C33.7896 12.1808 34.9496 14.1108 36.9196 16.5208C38.8896 18.9308 43.7196 20.8308 43.7196 20.8308" stroke="#006699" stroke-width="3" stroke-miterlimit="10" stroke-linecap="round"/>
<path d="M29.79 15.7707C29.79 15.7707 32.66 14.4507 35.21 14.8307" stroke="#006699" stroke-width="3" stroke-miterlimit="10" stroke-linecap="round"/>
<path d="M42.9299 18.9108C42.9299 18.9108 41.5799 10.9708 38.1599 7.5508C33.5999 2.9908 22.1199 3.62079 20.6799 2.15079C19.2399 0.680794 18.8599 10.3108 22.5899 15.7108C26.3199 21.1108 30.2599 23.0708 34.5399 22.9808C38.8099 22.8908 41.3899 21.4208 41.3899 21.4208" stroke="#006699" stroke-width="3" stroke-miterlimit="10" stroke-linecap="round"/>
<path d="M76.6204 52.4007C78.2607 52.4007 79.5904 51.071 79.5904 49.4307C79.5904 47.7904 78.2607 46.4607 76.6204 46.4607C74.9801 46.4607 73.6504 47.7904 73.6504 49.4307C73.6504 51.071 74.9801 52.4007 76.6204 52.4007Z" fill="#006699"/>
<path d="M10.7395 64.2808C12.3798 64.2808 13.7095 62.9511 13.7095 61.3108C13.7095 59.6705 12.3798 58.3408 10.7395 58.3408C9.09925 58.3408 7.76953 59.6705 7.76953 61.3108C7.76953 62.9511 9.09925 64.2808 10.7395 64.2808Z" fill="#006699"/>
<path d="M71.3098 69.3209C72.9501 69.3209 74.2798 67.9911 74.2798 66.3509C74.2798 64.7106 72.9501 63.3809 71.3098 63.3809C69.6696 63.3809 68.3398 64.7106 68.3398 66.3509C68.3398 67.9911 69.6696 69.3209 71.3098 69.3209Z" fill="#006699"/>
<path d="M17.6695 50.6909C19.4092 50.6909 20.8195 49.2806 20.8195 47.5409C20.8195 45.8012 19.4092 44.3909 17.6695 44.3909C15.9298 44.3909 14.5195 45.8012 14.5195 47.5409C14.5195 49.2806 15.9298 50.6909 17.6695 50.6909Z" fill="#006699"/>
<path d="M67.7102 55.0009C68.4281 55.0009 69.0102 54.4189 69.0102 53.7009C69.0102 52.9829 68.4281 52.4009 67.7102 52.4009C66.9922 52.4009 66.4102 52.9829 66.4102 53.7009C66.4102 54.4189 66.9922 55.0009 67.7102 55.0009Z" fill="#006699"/>
<path d="M58.7504 43.2507C59.38 43.2507 59.8904 42.7403 59.8904 42.1107C59.8904 41.4811 59.38 40.9707 58.7504 40.9707C58.1207 40.9707 57.6104 41.4811 57.6104 42.1107C57.6104 42.7403 58.1207 43.2507 58.7504 43.2507Z" fill="#006699"/>
<path d="M74.55 59.4508C75.268 59.4508 75.85 58.8688 75.85 58.1508C75.85 57.4329 75.268 56.8508 74.55 56.8508C73.832 56.8508 73.25 57.4329 73.25 58.1508C73.25 58.8688 73.832 59.4508 74.55 59.4508Z" fill="#006699"/>
<path d="M21.3898 70.6208C22.1078 70.6208 22.6898 70.0387 22.6898 69.3207C22.6898 68.6028 22.1078 68.0208 21.3898 68.0208C20.6719 68.0208 20.0898 68.6028 20.0898 69.3207C20.0898 70.0387 20.6719 70.6208 21.3898 70.6208Z" fill="#006699"/>
<path d="M66.1601 47.0907C67.0106 47.0907 67.7001 46.4013 67.7001 45.5507C67.7001 44.7002 67.0106 44.0107 66.1601 44.0107C65.3096 44.0107 64.6201 44.7002 64.6201 45.5507C64.6201 46.4013 65.3096 47.0907 66.1601 47.0907Z" fill="#006699"/>
<path d="M20.08 55.4809C20.9306 55.4809 21.62 54.7914 21.62 53.9409C21.62 53.0904 20.9306 52.4009 20.08 52.4009C19.2295 52.4009 18.54 53.0904 18.54 53.9409C18.54 54.7914 19.2295 55.4809 20.08 55.4809Z" fill="#006699"/>
<path d="M27.7296 44.0309C28.79 44.0309 29.6496 43.1713 29.6496 42.1109C29.6496 41.0505 28.79 40.1909 27.7296 40.1909C26.6692 40.1909 25.8096 41.0505 25.8096 42.1109C25.8096 43.1713 26.6692 44.0309 27.7296 44.0309Z" fill="#006699"/>
<path d="M48.0398 48.0008C47.2198 47.1808 45.8598 46.9708 44.3598 47.1008C38.6898 47.5808 34.0898 52.1808 33.6098 57.8508C33.4798 59.3508 33.6898 60.7108 34.5098 61.5308C35.4198 62.4408 36.9098 62.4408 37.8198 61.5308L48.0398 51.3108C48.9498 50.4008 48.9498 48.9108 48.0398 48.0008ZM41.5098 49.9908L36.8598 54.5008C36.4398 54.9008 35.9698 55.0808 35.7898 54.9108C35.6298 54.7508 35.7498 54.3408 35.9898 53.8508C36.8898 51.9908 38.9898 49.9608 40.8798 49.1108C41.3798 48.8908 41.7898 48.7808 41.9498 48.9508C42.1198 49.1108 41.9198 49.5908 41.5098 49.9908Z" fill="#006699"/>
<path d="M52.7203 52.9908C53.5403 53.8108 53.7503 55.1708 53.6203 56.6708C53.1403 62.3408 48.5403 66.9409 42.8703 67.4208C41.3703 67.5508 40.0103 67.3408 39.1903 66.5208C38.2803 65.6108 38.2803 64.1209 39.1903 63.2109L49.4103 52.9908C50.3303 52.0808 51.8103 52.0808 52.7203 52.9908Z" fill="#006699"/>
<path d="M40.1696 35.8708H1.55957V70.9708C1.55957 74.4508 4.37957 77.2709 7.85957 77.2709H79.1396C82.6196 77.2709 85.4396 74.4508 85.4396 70.9708V35.8708H47.0696" stroke="#006699" stroke-width="3" stroke-miterlimit="10"/>
</svg>
