<svg width="22" height="42" viewBox="0 0 22 42" fill="none" xmlns="http://www.w3.org/2000/svg">
<path d="M11.0002 0.166626C12.7293 0.166483 14.3929 0.827878 15.65 2.01518C16.907 3.20249 17.6622 4.82573 17.7606 6.55204L17.771 6.93746L17.7731 23.5041L17.9397 23.6479C19.8812 25.3788 21.1033 27.7746 21.3647 30.3625L21.4043 30.8875L21.4168 31.4166C21.4171 33.1329 20.9934 34.8227 20.1832 36.3357C19.373 37.8487 18.2015 39.1381 16.7729 40.0892C15.3443 41.0404 13.7028 41.6238 11.9943 41.7876C10.2859 41.9514 8.56345 41.6905 6.98013 41.0282C5.39681 40.3658 4.00167 39.3225 2.91877 37.991C1.83586 36.6595 1.09873 35.081 0.772918 33.3959C0.447104 31.7109 0.542699 29.9714 1.0512 28.3322C1.55971 26.693 2.46537 25.2048 3.68766 24L4.06266 23.6458L4.22725 23.5041L4.22933 6.93746C4.22899 5.27351 4.84137 3.6677 5.9496 2.42651C7.05783 1.18532 8.5843 0.395679 10.2377 0.208293L10.6168 0.177043L11.0002 0.166626ZM11.0002 3.29163C10.0849 3.2917 9.20306 3.63607 8.52994 4.25631C7.85682 4.87655 7.44162 5.72729 7.36683 6.63954L7.35433 6.93746V25.05L6.71058 25.5187C5.48065 26.4134 4.56124 27.6702 4.08107 29.1133C3.6009 30.5564 3.584 32.1136 4.03272 33.5667C4.48145 35.0199 5.37335 36.2965 6.58357 37.2176C7.79379 38.1387 9.26176 38.6584 10.782 38.7038C12.3022 38.7492 13.7986 38.3182 15.0616 37.471C16.3247 36.6237 17.2913 35.4028 17.826 33.979C18.3607 32.5552 18.4368 30.9998 18.0437 29.5306C17.6505 28.0614 16.8078 26.7519 15.6335 25.7854L15.2918 25.5208L14.6481 25.052L14.646 6.93746C14.646 6.45868 14.5517 5.98459 14.3685 5.54226C14.1853 5.09993 13.9167 4.69801 13.5782 4.35947C13.2396 4.02092 12.8377 3.75237 12.3954 3.56915C11.953 3.38593 11.4789 3.29163 11.0002 3.29163ZM11.0002 12.6666C11.4146 12.6666 11.812 12.8312 12.105 13.1243C12.398 13.4173 12.5627 13.8147 12.5627 14.2291V26.4479C13.7503 26.8212 14.765 27.6074 15.4231 28.6642C16.0812 29.7209 16.3391 30.9784 16.1503 32.2089C15.9614 33.4394 15.3383 34.5616 14.3936 35.3724C13.4489 36.1832 12.2451 36.6289 11.0002 36.6289C9.75525 36.6289 8.55148 36.1832 7.60678 35.3724C6.66208 34.5616 6.03889 33.4394 5.85005 32.2089C5.6612 30.9784 5.91917 29.7209 6.57725 28.6642C7.23534 27.6074 8.25004 26.8212 9.43766 26.4479V14.2291C9.43766 13.8147 9.60229 13.4173 9.89531 13.1243C10.1883 12.8312 10.5858 12.6666 11.0002 12.6666Z" fill="#006699"/>
</svg>
